<svg width="209" height="641" viewBox="0 0 209 641" fill="none" xmlns="http://www.w3.org/2000/svg">
<circle cx="104.5" cy="605.5" r="34.5" stroke="white" stroke-width="2" stroke-dasharray="4 4"/>
<circle cx="104.5" cy="605.5" r="22.1885" stroke="white" stroke-width="2"/>
<circle cx="104.5" cy="605.5" r="13.0082" fill="#76BC21"/>
<path d="M209 605H139" stroke="white" stroke-width="2" stroke-dasharray="4 4"/>
<path d="M104 571L104 526" stroke="white" stroke-width="2" stroke-dasharray="4 4"/>
<circle cx="104.5" cy="491.5" r="34.5" stroke="white" stroke-width="2" stroke-dasharray="4 4"/>
<circle cx="104.5" cy="491.5" r="22.1885" stroke="white" stroke-width="2"/>
<circle cx="104.5" cy="491.5" r="13.0082" fill="#76BC21"/>
<path d="M70 491H0" stroke="white" stroke-width="2" stroke-dasharray="4 4"/>
<path d="M104 457L104 412" stroke="white" stroke-width="2" stroke-dasharray="4 4"/>
<circle cx="104.5" cy="377.5" r="34.5" stroke="white" stroke-width="2" stroke-dasharray="4 4"/>
<circle cx="104.5" cy="377.5" r="22.1885" stroke="white" stroke-width="2"/>
<circle cx="104.5" cy="377.5" r="13.0082" fill="#76BC21"/>
<path d="M209 377H139" stroke="white" stroke-width="2" stroke-dasharray="4 4"/>
<path d="M104 342L104 297" stroke="white" stroke-width="2" stroke-dasharray="4 4"/>
<circle cx="104.5" cy="263.5" r="34.5" stroke="white" stroke-width="2" stroke-dasharray="4 4"/>
<circle cx="104.5" cy="263.5" r="22.1885" stroke="white" stroke-width="2"/>
<circle cx="104.5" cy="263.5" r="13.0082" fill="#76BC21"/>
<path d="M70 263H0" stroke="white" stroke-width="2" stroke-dasharray="4 4"/>
<path d="M104 229L104 184" stroke="white" stroke-width="2" stroke-dasharray="4 4"/>
<circle cx="104.5" cy="149.5" r="34.5" stroke="white" stroke-width="2" stroke-dasharray="4 4"/>
<circle cx="104.5" cy="149.5" r="22.1885" stroke="white" stroke-width="2"/>
<circle cx="104.5" cy="149.5" r="13.0082" fill="#76BC21"/>
<path d="M209 149H139" stroke="white" stroke-width="2" stroke-dasharray="4 4"/>
<path d="M104 115L104 70" stroke="white" stroke-width="2" stroke-dasharray="4 4"/>
<circle cx="104.5" cy="35.5" r="34.5" stroke="white" stroke-width="2" stroke-dasharray="4 4"/>
<circle cx="104.5" cy="35.5" r="22.1885" stroke="white" stroke-width="2"/>
<circle cx="104.5" cy="35.5" r="13.0082" fill="#76BC21"/>
<path d="M70 35H0" stroke="white" stroke-width="2" stroke-dasharray="4 4"/>
</svg>
