<svg width="46" height="422" viewBox="0 0 46 422" fill="none" xmlns="http://www.w3.org/2000/svg">
<circle cx="10.9995" cy="411" r="10" stroke="white" stroke-width="0.659713" stroke-dasharray="1.32 1.32"/>
<circle cx="10.9991" cy="411" r="6.39146" stroke="white" stroke-width="0.659713"/>
<circle cx="10.999" cy="411" r="3.77049" fill="#76BC21"/>
<path d="M10.9995 401L10.9995 341" stroke="white" stroke-width="0.659713" stroke-dasharray="1.32 1.32"/>
<path d="M10.9995 321L10.9995 261" stroke="white" stroke-width="0.659713" stroke-dasharray="1.32 1.32"/>
<path d="M10.9995 241L10.9995 181" stroke="white" stroke-width="0.659713" stroke-dasharray="1.32 1.32"/>
<circle cx="10.9995" cy="331" r="10" stroke="white" stroke-width="0.659713" stroke-dasharray="1.32 1.32"/>
<circle cx="10.9991" cy="331" r="6.39146" stroke="white" stroke-width="0.659713"/>
<circle cx="10.999" cy="331" r="3.77049" fill="#76BC21"/>
<circle cx="10.9995" cy="251" r="10" stroke="white" stroke-width="0.659713" stroke-dasharray="1.32 1.32"/>
<circle cx="10.9991" cy="251" r="6.39146" stroke="white" stroke-width="0.659713"/>
<circle cx="10.999" cy="251" r="3.77049" fill="#76BC21"/>
<path d="M10.9995 161L10.9995 101" stroke="white" stroke-width="0.659713" stroke-dasharray="1.32 1.32"/>
<circle cx="10.9995" cy="171" r="10" stroke="white" stroke-width="0.659713" stroke-dasharray="1.32 1.32"/>
<circle cx="10.9991" cy="171" r="6.39146" stroke="white" stroke-width="0.659713"/>
<circle cx="10.999" cy="171" r="3.77049" fill="#76BC21"/>
<circle cx="10.9995" cy="91" r="10" stroke="white" stroke-width="0.659713" stroke-dasharray="1.32 1.32"/>
<circle cx="10.9991" cy="91" r="6.39146" stroke="white" stroke-width="0.659713"/>
<circle cx="10.999" cy="91" r="3.77049" fill="#76BC21"/>
<path d="M10.9995 81L10.9995 21" stroke="white" stroke-width="0.659713" stroke-dasharray="1.32 1.32"/>
<circle cx="10.9995" cy="11" r="10" stroke="white" stroke-width="0.659713" stroke-dasharray="1.32 1.32"/>
<circle cx="10.9991" cy="11" r="6.39146" stroke="white" stroke-width="0.659713"/>
<circle cx="10.999" cy="11" r="3.77049" fill="#76BC21"/>
<path d="M45.9995 11H21.9995" stroke="white" stroke-width="0.659713" stroke-dasharray="1.32 1.32"/>
<path d="M45.9995 91H21.9995" stroke="white" stroke-width="0.659713" stroke-dasharray="1.32 1.32"/>
<path d="M45.9995 171H21.9995" stroke="white" stroke-width="0.659713" stroke-dasharray="1.32 1.32"/>
<path d="M45.9995 251H21.9995" stroke="white" stroke-width="0.659713" stroke-dasharray="1.32 1.32"/>
<path d="M45.9995 331H21.9995" stroke="white" stroke-width="0.659713" stroke-dasharray="1.32 1.32"/>
<path d="M45.9995 411H21.9995" stroke="white" stroke-width="0.659713" stroke-dasharray="1.32 1.32"/>
</svg>
