<svg width="104" height="90" viewBox="0 0 104 90" fill="none" xmlns="http://www.w3.org/2000/svg">
<path d="M0 59.0244C0 45.0407 2.34343 32.7642 7.0303 22.1951C11.8788 11.626 19.2323 4.22764 29.0909 0C32.8081 3.73984 36.0404 6.82927 38.7879 9.26829C41.697 11.5447 44.8485 13.5772 48.2424 15.3658C40 18.4553 33.9394 22.1138 30.0606 26.3415C26.3434 30.5691 23.9192 35.5285 22.7879 41.2195H47.2727V90H0.242424L0 59.0244ZM55.7576 59.0244C55.7576 45.0407 58.101 32.7642 62.7879 22.1951C67.6364 11.626 74.9899 4.22764 84.8485 0C88.5657 3.73984 91.798 6.82927 94.5455 9.26829C97.4545 11.5447 100.606 13.5772 104 15.3658C95.7576 18.4553 89.697 22.1138 85.8182 26.3415C82.101 30.5691 79.6768 35.5285 78.5455 41.2195H100.606V90H56L55.7576 59.0244Z" fill="#76BC21"/>
</svg>
