<svg width="104" height="104" viewBox="0 0 104 104" fill="none" xmlns="http://www.w3.org/2000/svg">
<path d="M104 52C104 80.7216 80.7216 104 52 104C23.2784 104 0 80.7216 0 52C0 23.2784 23.2784 0 52 0C80.7216 0 104 23.2784 104 52Z" fill="#111C4E"/>
<path d="M66.7079 29.7638C66.7079 29.7638 65.3181 17.6034 58.601 19.8039C51.8838 22.0043 49.3359 29.9954 49.3359 35.0912C49.3359 40.0711 59.5275 53.8529 60.5698 55.1268C61.4963 56.2849 64.8549 58.2538 64.8549 58.2538C64.8549 58.2538 73.8883 50.6101 77.9417 45.1669C81.9952 39.7237 85.817 34.7437 83.1533 30.9219C80.4896 27.1001 78.405 24.4364 75.5097 25.4787C72.6143 26.4052 68.3293 29.0689 68.3293 29.0689L66.7079 29.7638Z" fill="#76BC21"/>
<path d="M71.5722 59.8755C70.5299 59.5281 69.4876 59.0649 68.4453 58.4858C72.2671 55.4747 75.2782 52.3477 78.1736 49.2208C84.7749 42.0404 90.4497 32.5437 84.1958 26.174C78.0577 19.8043 72.0355 24.321 69.9508 25.4791C67.8662 26.7531 68.5611 23.7419 67.982 21.6573C67.1713 19.341 64.9709 16.7931 59.5277 16.6773C54.5477 16.5615 47.2515 22.9312 47.3673 34.9758C46.7883 34.1651 45.8618 33.2386 45.3985 32.6595C44.8194 31.733 43.1981 32.7753 43.1981 32.7753C43.1981 32.7753 43.6613 32.1963 41.8083 29.6484C40.0711 27.1005 32.1958 27.5637 26.6368 33.7018C21.0778 39.8399 18.9932 52.5793 24.7838 53.8533C28.0266 54.5482 32.08 52.5793 32.8907 51.7686C31.3851 53.5058 24.7838 60.9179 21.8885 62.076C18.6457 63.3499 19.4564 60.1072 19.688 58.6016C19.9197 57.096 18.7615 56.9802 17.6034 57.5593C17.6034 57.5593 15.7504 58.949 14.5923 59.7597C13.4341 60.6862 12.7393 61.6127 12.8551 62.7709C12.9709 63.929 13.7816 69.6038 20.7303 67.9825C27.4475 66.4769 36.8283 51.3054 35.6702 51.0738C36.0177 51.1896 34.8595 55.7063 34.8595 58.0225C34.9753 63.1183 37.8707 71.2252 49.1045 68.4457C55.59 66.8243 60.4542 64.0448 64.6234 61.2653C67.0555 62.6551 69.256 63.5816 70.9932 64.1606C77.4787 66.2453 81.1847 65.5504 81.8796 64.1606C82.227 63.0025 80.374 63.1183 71.5722 59.8755ZM58.2537 22.468C63.0021 20.4992 65.7816 26.9847 64.3918 30.4591C63.0021 33.9335 63.0021 33.586 64.3918 33.8176C65.8974 34.0493 66.0132 32.5437 69.256 29.7642C72.4987 26.9847 76.3206 25.7107 79.6791 28.6061C83.0377 31.5014 82.1112 36.4813 75.1624 44.7041C71.109 49.4524 68.0978 52.0003 63.9286 55.3588C57.6747 50.6105 53.158 44.2408 52.4631 37.4078C51.6524 29.5326 53.6212 24.4368 58.2537 22.468ZM40.1869 36.0181C39.9553 38.9134 35.9018 46.2096 32.4275 48.9891C28.9531 51.7686 24.668 53.7375 25.7103 48.0626C26.8684 41.3455 32.7749 35.0916 35.0911 33.8176C37.5232 32.6595 40.4185 33.2386 40.1869 36.0181ZM49.6836 63.4657C43.6613 64.7397 40.766 59.0649 41.345 52.6951C41.8083 47.7152 46.2092 38.1027 47.3673 36.3655C47.3673 37.292 47.4831 38.3343 47.5989 39.3767C48.7571 47.9468 54.2003 54.2007 59.7593 58.4858C55.8217 61.0337 52.2315 62.8867 49.6836 63.4657Z" fill="white"/>
<path d="M26.4052 75.5098H23.3941V81.6479H21.4253V73.7726H26.4052V75.5098Z" fill="white"/>
<path d="M35.786 77.7102C35.786 78.8684 35.4385 79.9107 34.6278 80.7214C33.8172 81.5321 32.7748 81.9953 31.5009 81.9953C30.227 81.9953 29.1846 81.5321 28.3739 80.7214C27.5633 79.9107 27.2158 78.8684 27.2158 77.7102C27.2158 76.5521 27.5633 75.5098 28.3739 74.6991C29.1846 73.8884 30.227 73.4252 31.5009 73.4252C32.7748 73.4252 33.8172 73.8884 34.6278 74.6991C35.4385 75.5098 35.786 76.5521 35.786 77.7102ZM33.5855 77.7102C33.5855 76.8996 33.3539 76.3205 33.0065 75.9731C32.659 75.6256 32.1958 75.394 31.5009 75.394C30.9218 75.394 30.4586 75.6256 29.9953 75.9731C29.6479 76.4363 29.4163 77.0154 29.4163 77.7102C29.4163 78.5209 29.6479 79.1 29.9953 79.4474C30.3428 79.7949 30.806 80.0265 31.5009 80.0265C32.08 80.0265 32.5432 79.7949 33.0065 79.4474C33.3539 78.9842 33.5855 78.4051 33.5855 77.7102Z" fill="white"/>
<path d="M42.8509 75.5098H40.6505V81.6479H38.5658V75.5098H36.4812V73.7726H42.8509V75.5098Z" fill="white"/>
<path d="M51.9998 77.7102C51.9998 78.8684 51.6524 79.9107 50.8417 80.7214C50.031 81.5321 48.9887 81.9953 47.7148 81.9953C46.4408 81.9953 45.3985 81.5321 44.5878 80.7214C43.7771 79.9107 43.4297 78.8684 43.4297 77.7102C43.4297 76.5521 43.7771 75.5098 44.5878 74.6991C45.3985 73.8884 46.4408 73.4252 47.7148 73.4252C48.9887 73.4252 50.031 73.8884 50.8417 74.6991C51.6524 75.5098 51.9998 76.5521 51.9998 77.7102ZM49.7994 77.7102C49.7994 76.8996 49.5678 76.3205 49.2203 75.9731C48.8729 75.6256 48.4096 75.394 47.7148 75.394C47.1357 75.394 46.6725 75.6256 46.2092 75.9731C45.8618 76.4363 45.6301 77.0154 45.6301 77.7102C45.6301 78.5209 45.8618 79.1 46.2092 79.4474C46.5566 79.7949 47.0199 80.0265 47.7148 80.0265C48.2938 80.0265 48.7571 79.7949 49.2203 79.4474C49.6836 78.9842 49.7994 78.4051 49.7994 77.7102Z" fill="white"/>
<path d="M60.223 79.4474C60.223 80.1423 59.9914 80.7214 59.5281 81.0688C59.0649 81.4162 58.2542 81.6479 57.2118 81.6479H53.8533V73.7726H56.9802C58.8332 73.7726 59.7597 74.4675 59.7597 75.973C59.7597 76.3205 59.6439 76.5521 59.5281 76.8995C59.2965 77.247 59.0649 77.4786 58.8332 77.5944C59.2965 77.7102 59.6439 77.9418 59.8755 78.4051C60.1072 78.6367 60.223 78.9842 60.223 79.4474ZM57.7909 76.0888C57.7909 75.5098 57.5593 75.2782 56.8644 75.2782H55.8221V76.8995H56.7486C57.4435 76.8995 57.7909 76.6679 57.7909 76.0888ZM58.1384 79.1C58.1384 78.5209 57.7909 78.2893 57.096 78.2893H55.9379V80.0265H57.096C57.7909 80.0265 58.1384 79.679 58.1384 79.1Z" fill="white"/>
<path d="M69.1398 81.6481H67.171V77.363L62.0752 82.1114V73.7728H64.1598V77.8263L69.1398 73.3096V81.6481Z" fill="white"/>
<path d="M76.7838 75.5098H74.5833V81.6479H72.4987V75.5098H70.4141V73.7726H76.7838V75.5098Z" fill="white"/>
<path d="M84.4281 79.1C84.4281 80.7214 83.3857 81.6479 81.4169 81.6479H78.0583V73.7726H80.143V76.6679H81.4169C82.4592 76.6679 83.2699 76.8995 83.7332 77.4786C84.1964 77.826 84.4281 78.4051 84.4281 79.1ZM82.3434 79.1C82.3434 78.8684 82.2276 78.6367 81.996 78.5209C81.7644 78.2893 81.5327 78.1735 81.0695 78.1735H80.0272V80.0265H81.0695C81.8802 80.0265 82.3434 79.679 82.3434 79.1Z" fill="white"/>
</svg>
