<svg width="292" height="412" viewBox="0 0 292 412" fill="none" xmlns="http://www.w3.org/2000/svg">
<g filter="url(#filter0_d_123_14738)">
<path d="M43.1063 243.282C37.1623 197.93 40.3426 159.827 44.754 132.795C45.1845 130.182 45.0018 127.446 44.2332 124.806L28.6749 71.3123C27.7066 67.9824 30.3802 65.1507 33.2141 66.512L39.2795 69.3867C42.1607 70.7628 45.2947 69.8606 47.0024 67.173L51.7916 59.6472C53.4853 56.9692 56.643 56.0744 59.5145 57.4335L67.6178 61.2948C70.499 62.6708 73.633 61.7687 75.3407 59.0811L80.1298 51.5553C81.8236 48.8773 84.9813 47.9825 87.8528 49.3415L95.9561 53.2029C98.8373 54.5789 101.971 53.6768 103.679 50.9891L108.474 43.5069C110.167 40.8289 113.325 39.9341 116.197 41.2932L124.3 45.1545C127.181 46.5305 130.315 45.6284 132.023 42.9407L135.603 37.3102C137.279 34.6684 141.065 35.6582 142.034 38.9881L157.453 92.0342C158.307 94.9936 159.865 97.6574 161.936 99.7562C169.125 107.084 176.407 114.914 183.741 123.277C210.487 153.827 231.715 184.602 248.491 212.881C252.594 219.801 254.912 227.877 254.595 235.826C254.16 246.765 249.259 256 241.75 259.745C238.543 261.336 234.952 261.913 231.242 261.533C223.233 260.728 215.743 255.357 210.817 247.608C205.37 239.013 199.898 230.41 194.45 221.814C194.45 221.814 194.085 221.923 193.748 222.25C188.321 227.637 211.568 279.674 206.783 317.107C203.545 342.386 187.157 363.871 167.929 372.861C135.649 387.991 96.8603 367.189 75.3348 342.388C52.6542 316.278 48.5711 285.038 43.1063 243.282Z" fill="#111C4E"/>
<g opacity="0.25">
<g opacity="0.25">
<path opacity="0.25" d="M124.302 45.1544C127.183 46.5304 130.317 45.6283 132.024 42.9406L134.424 39.1862L151.056 96.434C151.401 97.6158 150.862 98.8141 149.861 99.1006L139.345 102.1C138.344 102.387 137.245 101.652 136.901 100.47L120.269 43.2226L124.302 45.1544Z" fill="black"/>
<path opacity="0.25" d="M95.9526 53.2296C98.8339 54.6057 101.968 53.7035 103.676 51.0159L106.075 47.2615L122.707 104.509C123.052 105.691 122.513 106.889 121.512 107.176L110.996 110.175C109.995 110.462 108.897 109.727 108.552 108.546L91.9198 51.2979L95.9526 53.2296Z" fill="black"/>
<path opacity="0.25" d="M39.2795 69.3868C42.1608 70.7628 45.2948 69.8607 47.0025 67.1731L49.4019 63.4187L66.0343 120.666C66.3787 121.848 65.8397 123.047 64.8386 123.333L54.3228 126.332C53.3218 126.619 52.2235 125.885 51.8791 124.703L35.2327 67.4646L39.2795 69.3868Z" fill="black"/>
<path opacity="0.25" d="M67.6257 61.3122C70.5069 62.6883 73.641 61.7861 75.3487 59.0985L77.7481 55.3441L94.3805 112.592C94.7249 113.774 94.1859 114.972 93.1848 115.258L82.669 118.258C81.6679 118.544 80.5697 117.81 80.2253 116.628L63.5789 59.3901L67.6257 61.3122Z" fill="black"/>
</g>
</g>
<path d="M64.5458 281.187L66.1782 280.905L71.0903 304.363L69.4579 304.646L64.5458 281.187Z" fill="white"/>
<path d="M64.5458 281.187L66.1782 280.905L71.0903 304.363L69.4579 304.646L64.5458 281.187Z" fill="white"/>
<path d="M74.7336 284.663L75.8943 286.173L60.9894 300.902L59.8287 299.391L74.7336 284.663Z" fill="white"/>
<path d="M74.7336 284.663L75.8943 286.173L60.9894 300.902L59.8287 299.391L74.7336 284.663Z" fill="white"/>
<path d="M58.1214 287.516L77.9407 296.243L77.4708 298.038L57.6515 289.311L58.1214 287.516Z" fill="white"/>
<path d="M68.7508 297.169L66.5374 301.079L67.9906 302.232L69.3231 299.873L71.5104 301.632L72.3913 300.08L68.7508 297.169Z" fill="white"/>
<path d="M67.677 283.364L66.3445 285.723L64.1572 283.964L63.2764 285.515L66.9168 288.426L69.1301 284.516L67.677 283.364Z" fill="white"/>
<path d="M68.7508 297.169L66.5374 301.079L67.9906 302.232L69.3231 299.873L71.5104 301.632L72.3913 300.08L68.7508 297.169Z" fill="white"/>
<path d="M67.677 283.364L66.3445 285.723L64.1572 283.964L63.2764 285.515L66.9168 288.426L69.1301 284.516L67.677 283.364Z" fill="white"/>
<path d="M60.939 294.855L60.9056 296.77L63.4684 297.111L63.4099 300.036L65.0967 300.271L65.1928 295.405L60.939 294.855Z" fill="white"/>
<path d="M70.8348 285.073L70.7429 289.912L74.9925 290.489L75.0398 288.565L72.477 288.223L72.5258 285.281L70.8348 285.073Z" fill="white"/>
<path d="M62.4057 286.636L60.9428 287.405L62.1731 290.106L59.9132 291.282L60.7331 293.059L64.4559 291.113L62.4057 286.636Z" fill="white"/>
<path d="M75.5738 292.429L71.8414 294.357L73.8776 298.844L75.3641 298.082L74.1338 295.381L76.37 294.198L75.5738 292.429Z" fill="white"/>
<path d="M88.135 277.119L89.7673 276.836L94.6811 300.294L93.0488 300.576L88.135 277.119Z" fill="white"/>
<path d="M88.135 277.119L89.7673 276.836L94.6811 300.294L93.0488 300.576L88.135 277.119Z" fill="white"/>
<path d="M98.2983 280.587L99.459 282.098L84.5541 296.827L83.3934 295.316L98.2983 280.587Z" fill="white"/>
<path d="M98.2983 280.587L99.459 282.098L84.5541 296.827L83.3934 295.316L98.2983 280.587Z" fill="white"/>
<path d="M81.7008 283.447L101.519 292.172L101.049 293.967L81.231 285.242L81.7008 283.447Z" fill="white"/>
<path d="M92.315 293.093L90.1016 297.003L91.5548 298.156L92.8873 295.797L95.0747 297.556L95.9556 296.004L92.315 293.093Z" fill="white"/>
<path d="M91.2483 279.285L89.9157 281.644L87.7284 279.885L86.8475 281.437L90.488 284.348L92.7014 280.438L91.2483 279.285Z" fill="white"/>
<path d="M92.315 293.093L90.1016 297.003L91.5548 298.156L92.8873 295.797L95.0747 297.556L95.9556 296.004L92.315 293.093Z" fill="white"/>
<path d="M91.2483 279.285L89.9157 281.644L87.7284 279.885L86.8475 281.437L90.488 284.348L92.7014 280.438L91.2483 279.285Z" fill="white"/>
<path d="M84.5076 290.777L84.4742 292.692L87.0371 293.033L86.9785 295.958L88.6792 296.184L88.7614 291.327L84.5076 290.777Z" fill="white"/>
<path d="M94.3968 280.998L94.3146 285.854L98.5685 286.404L98.6018 284.49L96.039 284.148L96.0878 281.206L94.3968 280.998Z" fill="white"/>
<path d="M85.987 282.55L84.5102 283.329L85.7405 286.029L83.4808 287.205L84.3006 288.982L88.0329 287.054L85.987 282.55Z" fill="white"/>
<path d="M99.1381 288.353L95.4057 290.282L97.4515 294.786L98.9284 294.007L97.6981 291.306L99.9439 290.14L99.1381 288.353Z" fill="white"/>
<path d="M111.703 273.039L113.335 272.756L118.249 296.213L116.616 296.496L111.703 273.039Z" fill="white"/>
<path d="M111.703 273.039L113.335 272.756L118.249 296.213L116.616 296.496L111.703 273.039Z" fill="white"/>
<path d="M121.854 276.518L123.015 278.028L108.11 292.757L106.949 291.247L121.854 276.518Z" fill="white"/>
<path d="M121.854 276.518L123.015 278.028L108.11 292.757L106.949 291.247L121.854 276.518Z" fill="white"/>
<path d="M105.269 279.367L125.087 288.092L124.617 289.887L104.799 281.162L105.269 279.367Z" fill="white"/>
<path d="M115.874 289.019L113.671 292.946L115.114 294.081L116.447 291.723L118.634 293.481L119.515 291.93L115.874 289.019Z" fill="white"/>
<path d="M114.81 275.21L113.477 277.569L111.29 275.81L110.419 277.379L114.059 280.29L116.263 276.362L114.81 275.21Z" fill="white"/>
<path d="M115.874 289.019L113.671 292.946L115.114 294.081L116.447 291.723L118.634 293.481L119.515 291.93L115.874 289.019Z" fill="white"/>
<path d="M114.81 275.21L113.477 277.569L111.29 275.81L110.419 277.379L114.059 280.29L116.263 276.362L114.81 275.21Z" fill="white"/>
<path d="M108.074 286.701L108.04 288.615L110.603 288.957L110.545 291.882L112.245 292.107L112.328 287.251L108.074 286.701Z" fill="white"/>
<path d="M117.961 276.921L117.878 281.778L122.132 282.328L122.166 280.414L119.603 280.072L119.661 277.147L117.961 276.921Z" fill="white"/>
<path d="M109.551 278.474L108.074 279.253L109.305 281.954L107.059 283.12L107.865 284.906L111.597 282.978L109.551 278.474Z" fill="white"/>
<path d="M122.7 284.278L118.968 286.207L121.014 290.711L122.49 289.932L121.26 287.231L123.52 286.055L122.7 284.278Z" fill="white"/>
<path d="M135.269 268.961L136.901 268.678L141.815 292.135L140.182 292.418L135.269 268.961Z" fill="white"/>
<path d="M135.269 268.961L136.901 268.678L141.815 292.135L140.182 292.418L135.269 268.961Z" fill="white"/>
<path d="M145.421 272.443L146.582 273.953L131.677 288.682L130.516 287.171L145.421 272.443Z" fill="white"/>
<path d="M145.421 272.443L146.582 273.953L131.677 288.682L130.516 287.171L145.421 272.443Z" fill="white"/>
<path d="M128.835 275.308L148.654 284.035L148.184 285.83L128.365 277.103L128.835 275.308Z" fill="white"/>
<path d="M139.457 284.932L137.254 288.859L138.693 290.021L140.016 287.645L142.217 289.394L143.084 287.852L139.457 284.932Z" fill="white"/>
<path d="M138.391 271.125L137.044 273.493L134.857 271.734L133.986 273.303L137.626 276.214L139.83 272.287L138.391 271.125Z" fill="white"/>
<path d="M139.457 284.932L137.254 288.859L138.693 290.021L140.016 287.645L142.217 289.394L143.084 287.852L139.457 284.932Z" fill="white"/>
<path d="M138.391 271.125L137.044 273.493L134.857 271.734L133.986 273.303L137.626 276.214L139.83 272.287L138.391 271.125Z" fill="white"/>
<path d="M131.652 282.615L131.605 284.539L134.167 284.881L134.109 287.806L135.81 288.031L135.892 283.175L131.652 282.615Z" fill="white"/>
<path d="M141.541 272.835L141.445 277.701L145.699 278.251L145.732 276.337L143.169 275.995L143.228 273.07L141.541 272.835Z" fill="white"/>
<path d="M133.125 274.414L131.638 275.176L132.878 277.894L130.632 279.06L131.428 280.829L135.161 278.901L133.125 274.414Z" fill="white"/>
<path d="M146.267 280.201L142.544 282.147L144.594 286.624L146.057 285.854L144.827 283.154L147.087 281.978L146.267 280.201Z" fill="white"/>
<path d="M98.2539 152.707L104.866 151.564L124.684 246.208L118.072 247.351L98.2539 152.707Z" fill="white"/>
<path d="M98.2539 152.707L104.866 151.564L124.684 246.208L118.072 247.351L98.2539 152.707Z" fill="white"/>
<path d="M139.313 166.719L144.021 172.847L83.8769 232.281L79.1682 226.153L139.313 166.719Z" fill="white"/>
<path d="M139.313 166.719L144.021 172.847L83.8769 232.281L79.1682 226.153L139.313 166.719Z" fill="white"/>
<path d="M72.36 178.273L152.322 213.483L150.419 220.754L70.4566 185.544L72.36 178.273Z" fill="white"/>
<path d="M115.201 217.18L106.289 233.026L112.108 237.679L117.483 228.118L126.346 235.217L129.882 228.931L115.201 217.18Z" fill="white"/>
<path d="M110.901 161.477L105.54 171.027L96.6766 163.929L93.1403 170.215L107.822 181.966L116.719 166.129L110.901 161.477Z" fill="white"/>
<path d="M115.201 217.18L106.289 233.026L112.108 237.679L117.483 228.118L126.346 235.217L129.882 228.931L115.201 217.18Z" fill="white"/>
<path d="M110.901 161.477L105.54 171.027L96.6766 163.929L93.1403 170.215L107.822 181.966L116.719 166.129L110.901 161.477Z" fill="white"/>
<path d="M83.6962 207.823L83.5555 215.604L93.9196 216.965L93.6921 228.778L100.495 229.68L100.863 210.086L83.6962 207.823Z" fill="white"/>
<path d="M123.613 168.386L123.244 187.98L140.411 190.242L140.562 182.478L130.202 181.091L130.429 169.278L123.613 168.386Z" fill="white"/>
<path d="M89.642 174.701L83.6735 177.813L88.6625 188.734L79.5815 193.465L82.8619 200.643L97.9115 192.8L89.642 174.701Z" fill="white"/>
<path d="M142.718 198.065L127.669 205.909L135.915 224L141.893 220.906L136.904 209.985L145.985 205.253L142.718 198.065Z" fill="white"/>
<path d="M158.824 264.879L160.456 264.597L165.37 288.054L163.737 288.336L158.824 264.879Z" fill="white"/>
<path d="M158.824 264.879L160.456 264.597L165.37 288.054L163.737 288.336L158.824 264.879Z" fill="white"/>
<path d="M168.992 268.364L170.153 269.874L155.248 284.603L154.087 283.093L168.992 268.364Z" fill="white"/>
<path d="M168.992 268.364L170.153 269.874L155.248 284.603L154.087 283.093L168.992 268.364Z" fill="white"/>
<path d="M152.401 271.229L172.22 279.957L171.75 281.752L151.931 273.024L152.401 271.229Z" fill="white"/>
<path d="M163.022 280.856L160.818 284.783L162.257 285.945L163.58 283.569L165.781 285.319L166.648 283.777L163.022 280.856Z" fill="white"/>
<path d="M161.955 267.048L160.632 269.424L158.421 267.658L157.55 269.226L161.19 272.137L163.394 268.21L161.955 267.048Z" fill="white"/>
<path d="M163.022 280.856L160.818 284.783L162.257 285.945L163.58 283.569L165.781 285.319L166.648 283.777L163.022 280.856Z" fill="white"/>
<path d="M161.955 267.048L160.632 269.424L158.421 267.658L157.55 269.226L161.19 272.137L163.394 268.21L161.955 267.048Z" fill="white"/>
<path d="M155.214 278.539L155.167 280.463L157.743 280.796L157.695 283.738L159.372 283.956L159.454 279.099L155.214 278.539Z" fill="white"/>
<path d="M165.108 268.759L165.011 273.625L169.265 274.175L169.299 272.26L166.736 271.919L166.794 268.994L165.108 268.759Z" fill="white"/>
<path d="M156.693 270.337L155.207 271.099L156.447 273.816L154.201 274.982L155.007 276.769L158.743 274.814L156.693 270.337Z" fill="white"/>
<path d="M169.831 276.125L166.108 278.07L168.158 282.548L169.635 281.769L168.391 279.078L170.651 277.902L169.831 276.125Z" fill="white"/>
<path d="M182.384 260.825L184.017 260.543L188.929 284.001L187.296 284.283L182.384 260.825Z" fill="white"/>
<path d="M182.384 260.825L184.017 260.543L188.929 284.001L187.296 284.283L182.384 260.825Z" fill="white"/>
<path d="M192.56 264.286L193.721 265.796L178.816 280.525L177.655 279.014L192.56 264.286Z" fill="white"/>
<path d="M192.56 264.286L193.721 265.796L178.816 280.525L177.655 279.014L192.56 264.286Z" fill="white"/>
<path d="M175.969 267.151L195.788 275.878L195.318 277.673L175.499 268.946L175.969 267.151Z" fill="white"/>
<path d="M186.584 276.78L184.38 280.707L185.819 281.869L187.142 279.493L189.353 281.259L190.224 279.691L186.584 276.78Z" fill="white"/>
<path d="M185.522 262.971L184.199 265.347L181.997 263.598L181.117 265.149L184.757 268.06L186.961 264.133L185.522 262.971Z" fill="white"/>
<path d="M186.584 276.78L184.38 280.707L185.819 281.869L187.142 279.493L189.353 281.259L190.224 279.691L186.584 276.78Z" fill="white"/>
<path d="M185.522 262.971L184.199 265.347L181.997 263.598L181.117 265.149L184.757 268.06L186.961 264.133L185.522 262.971Z" fill="white"/>
<path d="M178.783 274.462L178.736 276.386L181.312 276.718L181.264 279.66L182.941 279.878L183.046 275.029L178.783 274.462Z" fill="white"/>
<path d="M188.67 264.683L188.574 269.549L192.838 270.116L192.875 268.175L190.298 267.843L190.357 264.918L188.67 264.683Z" fill="white"/>
<path d="M180.253 266.262L178.767 267.024L180.006 269.742L177.761 270.908L178.566 272.695L182.303 270.74L180.253 266.262Z" fill="white"/>
<path d="M193.397 272.048L189.675 273.994L191.725 278.471L193.202 277.692L191.971 274.991L194.217 273.825L193.397 272.048Z" fill="white"/>
<path d="M59.4957 317.555L206.612 292.114C207.1 296.507 207.395 300.868 207.44 305.164L65.91 329.647C63.484 325.736 61.3756 321.7 59.4957 317.555Z" fill="#76BC21"/>
<g opacity="0.25">
<g opacity="0.25">
<path opacity="0.25" d="M207.441 305.163C207.478 309.275 207.283 313.287 206.803 317.14C203.565 342.42 187.177 363.904 167.949 372.895C135.669 388.025 96.8806 367.222 75.3551 342.422C71.7737 338.288 68.6463 334.031 65.9254 329.637L207.441 305.163Z" fill="black"/>
</g>
</g>
</g>
<defs>
<filter id="filter0_d_123_14738" x="28.4727" y="35.7998" width="234.151" height="350.223" filterUnits="userSpaceOnUse" color-interpolation-filters="sRGB">
<feFlood flood-opacity="0" result="BackgroundImageFix"/>
<feColorMatrix in="SourceAlpha" type="matrix" values="0 0 0 0 0 0 0 0 0 0 0 0 0 0 0 0 0 0 127 0" result="hardAlpha"/>
<feOffset dx="4" dy="4"/>
<feGaussianBlur stdDeviation="2"/>
<feColorMatrix type="matrix" values="0 0 0 0 0 0 0 0 0 0 0 0 0 0 0 0 0 0 0.25 0"/>
<feBlend mode="normal" in2="BackgroundImageFix" result="effect1_dropShadow_123_14738"/>
<feBlend mode="normal" in="SourceGraphic" in2="effect1_dropShadow_123_14738" result="shape"/>
</filter>
</defs>
</svg>
