<svg width="297" height="412" viewBox="0 0 297 412" fill="none" xmlns="http://www.w3.org/2000/svg">
<g filter="url(#filter0_d_123_14631)">
<path d="M248.646 168.532C254.59 213.884 251.41 251.986 246.998 279.019C246.568 281.632 246.75 284.367 247.519 287.007L263.077 340.501C264.046 343.831 261.372 346.663 258.538 345.301L252.473 342.427C249.592 341.051 246.457 341.953 244.75 344.64L239.961 352.166C238.267 354.844 235.109 355.739 232.238 354.38L224.134 350.519C221.253 349.143 218.119 350.045 216.411 352.732L211.622 360.258C209.929 362.936 206.771 363.831 203.899 362.472L195.796 358.611C192.915 357.235 189.781 358.137 188.073 360.824L183.279 368.307C181.585 370.985 178.427 371.879 175.556 370.52L167.452 366.659C164.571 365.283 161.437 366.185 159.729 368.873L156.149 374.503C154.474 377.145 150.687 376.155 149.719 372.825L134.3 319.779C133.446 316.82 131.887 314.156 129.816 312.057C122.627 304.73 115.345 296.899 108.011 288.536C81.2649 257.987 60.0376 227.212 43.2616 198.932C39.1583 192.013 36.8404 183.936 37.1569 175.987C37.5919 165.048 42.4931 155.814 50.0021 152.069C53.209 150.478 56.7998 149.9 60.5102 150.28C68.5194 151.085 76.009 156.456 80.9348 164.205C86.3827 172.801 91.8541 181.404 97.302 189.999C97.302 189.999 97.6668 189.89 98.0044 189.564C103.431 184.176 80.1844 132.14 84.9695 94.7068C88.2073 69.4272 104.596 47.9427 123.823 38.952C156.103 23.8224 194.892 44.6247 216.417 69.4252C239.098 95.5358 243.181 126.775 248.646 168.532Z" fill="#111C4E"/>
<g opacity="0.25">
<g opacity="0.25">
<path opacity="0.25" d="M167.45 366.659C164.569 365.283 161.435 366.185 159.727 368.873L157.328 372.627L140.696 315.379C140.351 314.198 140.89 312.999 141.891 312.713L152.407 309.713C153.408 309.427 154.506 310.161 154.851 311.343L171.483 368.591L167.45 366.659Z" fill="black"/>
<path opacity="0.25" d="M195.8 358.584C192.918 357.208 189.784 358.11 188.077 360.798L185.677 364.552L169.045 307.304C168.7 306.122 169.239 304.924 170.24 304.638L180.756 301.638C181.757 301.352 182.856 302.086 183.2 303.268L199.832 360.516L195.8 358.584Z" fill="black"/>
<path opacity="0.25" d="M252.472 342.427C249.591 341.051 246.457 341.953 244.749 344.64L242.35 348.395L225.718 291.147C225.373 289.965 225.912 288.767 226.913 288.48L237.429 285.481C238.43 285.195 239.528 285.929 239.873 287.111L256.519 344.349L252.472 342.427Z" fill="black"/>
<path opacity="0.25" d="M224.126 350.501C221.245 349.125 218.111 350.027 216.403 352.715L214.004 356.469L197.371 299.222C197.027 298.04 197.566 296.842 198.567 296.555L209.083 293.556C210.084 293.269 211.182 294.003 211.527 295.185L228.173 352.423L224.126 350.501Z" fill="black"/>
</g>
</g>
<path d="M227.207 130.626L225.574 130.908L220.662 107.45L222.295 107.168L227.207 130.626Z" fill="white"/>
<path d="M227.207 130.626L225.574 130.908L220.662 107.45L222.295 107.168L227.207 130.626Z" fill="white"/>
<path d="M217.019 127.151L215.858 125.641L230.763 110.912L231.923 112.422L217.019 127.151Z" fill="white"/>
<path d="M217.019 127.151L215.858 125.641L230.763 110.912L231.923 112.422L217.019 127.151Z" fill="white"/>
<path d="M233.631 124.297L213.812 115.57L214.281 113.775L234.101 122.502L233.631 124.297Z" fill="white"/>
<path d="M223.001 114.644L225.215 110.734L223.762 109.582L222.429 111.941L220.242 110.182L219.361 111.733L223.001 114.644Z" fill="white"/>
<path d="M224.075 128.45L225.407 126.091L227.595 127.85L228.476 126.298L224.835 123.387L222.622 127.297L224.075 128.45Z" fill="white"/>
<path d="M223.001 114.644L225.215 110.734L223.762 109.582L222.429 111.941L220.242 110.182L219.361 111.733L223.001 114.644Z" fill="white"/>
<path d="M224.075 128.45L225.407 126.091L227.595 127.85L228.476 126.298L224.835 123.387L222.622 127.297L224.075 128.45Z" fill="white"/>
<path d="M230.813 116.958L230.847 115.044L228.284 114.702L228.343 111.777L226.656 111.542L226.56 116.408L230.813 116.958Z" fill="white"/>
<path d="M220.918 126.74L221.01 121.901L216.76 121.324L216.713 123.248L219.275 123.59L219.227 126.532L220.918 126.74Z" fill="white"/>
<path d="M229.346 125.178L230.809 124.408L229.579 121.708L231.839 120.532L231.019 118.755L227.296 120.7L229.346 125.178Z" fill="white"/>
<path d="M216.178 119.385L219.911 117.456L217.875 112.969L216.388 113.732L217.618 116.432L215.382 117.615L216.178 119.385Z" fill="white"/>
<path d="M203.617 134.695L201.985 134.977L197.071 111.52L198.703 111.237L203.617 134.695Z" fill="white"/>
<path d="M203.617 134.695L201.985 134.977L197.071 111.52L198.703 111.237L203.617 134.695Z" fill="white"/>
<path d="M193.454 131.226L192.293 129.716L207.198 114.987L208.359 116.497L193.454 131.226Z" fill="white"/>
<path d="M193.454 131.226L192.293 129.716L207.198 114.987L208.359 116.497L193.454 131.226Z" fill="white"/>
<path d="M210.052 128.366L190.233 119.641L190.703 117.846L210.521 126.571L210.052 128.366Z" fill="white"/>
<path d="M199.437 118.72L201.65 114.81L200.197 113.658L198.865 116.016L196.677 114.258L195.796 115.809L199.437 118.72Z" fill="white"/>
<path d="M200.504 132.528L201.837 130.169L204.024 131.928L204.905 130.376L201.264 127.466L199.051 131.376L200.504 132.528Z" fill="white"/>
<path d="M199.437 118.72L201.65 114.81L200.197 113.658L198.865 116.016L196.677 114.258L195.796 115.809L199.437 118.72Z" fill="white"/>
<path d="M200.504 132.528L201.837 130.169L204.024 131.928L204.905 130.376L201.264 127.466L199.051 131.376L200.504 132.528Z" fill="white"/>
<path d="M207.245 121.036L207.278 119.122L204.715 118.78L204.774 115.855L203.073 115.63L202.991 120.486L207.245 121.036Z" fill="white"/>
<path d="M197.356 130.816L197.438 125.959L193.184 125.409L193.151 127.323L195.713 127.665L195.665 130.607L197.356 130.816Z" fill="white"/>
<path d="M205.765 129.264L207.242 128.485L206.011 125.784L208.271 124.608L207.451 122.831L203.719 124.76L205.765 129.264Z" fill="white"/>
<path d="M192.614 123.46L196.347 121.532L194.301 117.028L192.824 117.807L194.054 120.507L191.809 121.673L192.614 123.46Z" fill="white"/>
<path d="M180.049 138.775L178.417 139.057L173.503 115.6L175.136 115.318L180.049 138.775Z" fill="white"/>
<path d="M180.049 138.775L178.417 139.057L173.503 115.6L175.136 115.318L180.049 138.775Z" fill="white"/>
<path d="M169.898 135.296L168.737 133.785L183.642 119.056L184.803 120.567L169.898 135.296Z" fill="white"/>
<path d="M169.898 135.296L168.737 133.785L183.642 119.056L184.803 120.567L169.898 135.296Z" fill="white"/>
<path d="M186.484 132.446L166.666 123.721L167.135 121.926L186.953 130.651L186.484 132.446Z" fill="white"/>
<path d="M175.878 122.795L178.082 118.867L176.638 117.732L175.306 120.091L173.118 118.332L172.237 119.884L175.878 122.795Z" fill="white"/>
<path d="M176.943 136.603L178.275 134.245L180.462 136.003L181.334 134.435L177.693 131.524L175.489 135.451L176.943 136.603Z" fill="white"/>
<path d="M175.878 122.795L178.082 118.867L176.638 117.732L175.306 120.091L173.118 118.332L172.237 119.884L175.878 122.795Z" fill="white"/>
<path d="M176.943 136.603L178.275 134.245L180.462 136.003L181.334 134.435L177.693 131.524L175.489 135.451L176.943 136.603Z" fill="white"/>
<path d="M183.678 125.113L183.712 123.198L181.149 122.857L181.207 119.932L179.507 119.706L179.424 124.563L183.678 125.113Z" fill="white"/>
<path d="M173.792 134.892L173.874 130.036L169.62 129.485L169.587 131.4L172.15 131.742L172.091 134.667L173.792 134.892Z" fill="white"/>
<path d="M182.201 133.34L183.678 132.56L182.448 129.86L184.693 128.694L183.888 126.907L180.155 128.836L182.201 133.34Z" fill="white"/>
<path d="M169.052 127.535L172.785 125.607L170.739 121.103L169.262 121.882L170.492 124.582L168.233 125.758L169.052 127.535Z" fill="white"/>
<path d="M156.483 142.853L154.851 143.135L149.937 119.678L151.57 119.396L156.483 142.853Z" fill="white"/>
<path d="M156.483 142.853L154.851 143.135L149.937 119.678L151.57 119.396L156.483 142.853Z" fill="white"/>
<path d="M146.332 139.371L145.171 137.86L160.076 123.132L161.236 124.642L146.332 139.371Z" fill="white"/>
<path d="M146.332 139.371L145.171 137.86L160.076 123.132L161.236 124.642L146.332 139.371Z" fill="white"/>
<path d="M162.917 136.506L143.098 127.779L143.568 125.983L163.387 134.711L162.917 136.506Z" fill="white"/>
<path d="M152.295 126.881L154.499 122.954L153.059 121.792L151.737 124.168L149.535 122.419L148.668 123.961L152.295 126.881Z" fill="white"/>
<path d="M153.362 140.689L154.708 138.321L156.896 140.079L157.767 138.511L154.126 135.6L151.923 139.527L153.362 140.689Z" fill="white"/>
<path d="M152.295 126.881L154.499 122.954L153.059 121.792L151.737 124.168L149.535 122.419L148.668 123.961L152.295 126.881Z" fill="white"/>
<path d="M153.362 140.689L154.708 138.321L156.896 140.079L157.767 138.511L154.126 135.6L151.923 139.527L153.362 140.689Z" fill="white"/>
<path d="M160.1 129.198L160.148 127.274L157.585 126.932L157.643 124.008L155.943 123.782L155.86 128.638L160.1 129.198Z" fill="white"/>
<path d="M150.211 138.978L150.308 134.112L146.054 133.562L146.02 135.476L148.583 135.818L148.525 138.743L150.211 138.978Z" fill="white"/>
<path d="M158.627 137.4L160.114 136.638L158.874 133.92L161.12 132.754L160.324 130.984L156.591 132.913L158.627 137.4Z" fill="white"/>
<path d="M145.485 131.612L149.208 129.667L147.158 125.189L145.695 125.959L146.925 128.659L144.666 129.835L145.485 131.612Z" fill="white"/>
<path d="M193.498 259.106L186.886 260.249L167.069 165.606L173.681 164.462L193.498 259.106Z" fill="white"/>
<path d="M193.498 259.106L186.886 260.249L167.069 165.606L173.681 164.462L193.498 259.106Z" fill="white"/>
<path d="M152.44 245.094L147.731 238.967L207.875 179.533L212.584 185.66L152.44 245.094Z" fill="white"/>
<path d="M152.44 245.094L147.731 238.967L207.875 179.533L212.584 185.66L152.44 245.094Z" fill="white"/>
<path d="M219.392 233.54L139.43 198.331L141.334 191.06L221.296 226.269L219.392 233.54Z" fill="white"/>
<path d="M176.552 194.633L185.463 178.787L179.645 174.135L174.27 183.695L165.407 176.597L161.87 182.883L176.552 194.633Z" fill="white"/>
<path d="M180.851 250.337L186.212 240.786L195.075 247.884L198.612 241.599L183.93 229.848L175.033 245.684L180.851 250.337Z" fill="white"/>
<path d="M176.552 194.633L185.463 178.787L179.645 174.135L174.27 183.695L165.407 176.597L161.87 182.883L176.552 194.633Z" fill="white"/>
<path d="M180.851 250.337L186.212 240.786L195.075 247.884L198.612 241.599L183.93 229.848L175.033 245.684L180.851 250.337Z" fill="white"/>
<path d="M208.056 203.99L208.197 196.209L197.833 194.848L198.06 183.035L191.258 182.134L190.889 201.728L208.056 203.99Z" fill="white"/>
<path d="M168.14 243.428L168.508 223.834L151.341 221.571L151.191 229.336L161.55 230.723L161.323 242.536L168.14 243.428Z" fill="white"/>
<path d="M202.11 237.112L208.079 234.001L203.09 223.08L212.171 218.348L208.89 211.17L193.841 219.013L202.11 237.112Z" fill="white"/>
<path d="M149.034 213.748L164.083 205.905L155.837 187.813L149.859 190.908L154.848 201.829L145.767 206.561L149.034 213.748Z" fill="white"/>
<path d="M132.929 146.934L131.296 147.217L126.383 123.76L128.015 123.477L132.929 146.934Z" fill="white"/>
<path d="M132.929 146.934L131.296 147.217L126.383 123.76L128.015 123.477L132.929 146.934Z" fill="white"/>
<path d="M122.76 143.449L121.6 141.939L136.504 127.21L137.665 128.721L122.76 143.449Z" fill="white"/>
<path d="M122.76 143.449L121.6 141.939L136.504 127.21L137.665 128.721L122.76 143.449Z" fill="white"/>
<path d="M139.351 140.584L119.532 131.857L120.002 130.062L139.821 138.789L139.351 140.584Z" fill="white"/>
<path d="M128.731 130.957L130.934 127.03L129.495 125.868L128.172 128.244L125.971 126.495L125.104 128.037L128.731 130.957Z" fill="white"/>
<path d="M129.797 144.765L131.12 142.39L133.331 144.156L134.202 142.587L130.562 139.676L128.358 143.603L129.797 144.765Z" fill="white"/>
<path d="M128.731 130.957L130.934 127.03L129.495 125.868L128.172 128.244L125.971 126.495L125.104 128.037L128.731 130.957Z" fill="white"/>
<path d="M129.797 144.765L131.12 142.39L133.331 144.156L134.202 142.587L130.562 139.676L128.358 143.603L129.797 144.765Z" fill="white"/>
<path d="M136.538 133.274L136.586 131.35L134.009 131.018L134.058 128.076L132.381 127.858L132.298 132.714L136.538 133.274Z" fill="white"/>
<path d="M126.644 143.055L126.74 138.189L122.487 137.639L122.453 139.553L125.016 139.895L124.958 142.82L126.644 143.055Z" fill="white"/>
<path d="M135.059 141.477L136.545 140.715L135.305 137.997L137.551 136.831L136.745 135.044L133.009 136.999L135.059 141.477Z" fill="white"/>
<path d="M121.921 135.689L125.644 133.743L123.594 129.266L122.117 130.045L123.361 132.736L121.101 133.912L121.921 135.689Z" fill="white"/>
<path d="M109.368 150.989L107.735 151.271L102.823 127.812L104.456 127.53L109.368 150.989Z" fill="white"/>
<path d="M109.368 150.989L107.735 151.271L102.823 127.812L104.456 127.53L109.368 150.989Z" fill="white"/>
<path d="M99.1919 147.528L98.0312 146.017L112.936 131.289L114.097 132.799L99.1919 147.528Z" fill="white"/>
<path d="M99.1919 147.528L98.0312 146.017L112.936 131.289L114.097 132.799L99.1919 147.528Z" fill="white"/>
<path d="M115.783 144.663L95.9639 135.935L96.4338 134.14L116.253 142.868L115.783 144.663Z" fill="white"/>
<path d="M105.168 135.033L107.372 131.106L105.933 129.944L104.61 132.32L102.399 130.554L101.528 132.123L105.168 135.033Z" fill="white"/>
<path d="M106.231 148.842L107.554 146.467L109.755 148.216L110.636 146.664L106.995 143.753L104.792 147.68L106.231 148.842Z" fill="white"/>
<path d="M105.168 135.033L107.372 131.106L105.933 129.944L104.61 132.32L102.399 130.554L101.528 132.123L105.168 135.033Z" fill="white"/>
<path d="M106.231 148.842L107.554 146.467L109.755 148.216L110.636 146.664L106.995 143.753L104.792 147.68L106.231 148.842Z" fill="white"/>
<path d="M112.969 137.352L113.017 135.428L110.44 135.095L110.489 132.154L108.812 131.935L108.706 136.784L112.969 137.352Z" fill="white"/>
<path d="M103.082 147.13L103.178 142.264L98.9148 141.697L98.8772 143.638L101.454 143.97L101.395 146.895L103.082 147.13Z" fill="white"/>
<path d="M111.499 145.551L112.986 144.789L111.746 142.072L113.992 140.905L113.186 139.119L109.449 141.074L111.499 145.551Z" fill="white"/>
<path d="M98.355 139.765L102.078 137.82L100.028 133.342L98.5508 134.121L99.7811 136.822L97.5352 137.988L98.355 139.765Z" fill="white"/>
<path d="M232.256 94.2586L85.1396 119.699C84.6515 115.306 84.3566 110.946 84.312 106.65L225.842 82.1662C228.268 86.0778 230.376 90.1133 232.256 94.2586Z" fill="#76BC21"/>
<g opacity="0.25">
<g opacity="0.25">
<path opacity="0.25" d="M84.3109 106.651C84.2741 102.538 84.4693 98.5263 84.9493 94.6733C88.1871 69.3937 104.575 47.9092 123.803 38.9185C156.083 23.7888 194.872 44.5911 216.397 69.3916C219.978 73.5254 223.106 77.7822 225.827 82.1767L84.3109 106.651Z" fill="black"/>
</g>
</g>
</g>
<defs>
<filter id="filter0_d_123_14631" x="37.1284" y="33.7907" width="234.151" height="350.223" filterUnits="userSpaceOnUse" color-interpolation-filters="sRGB">
<feFlood flood-opacity="0" result="BackgroundImageFix"/>
<feColorMatrix in="SourceAlpha" type="matrix" values="0 0 0 0 0 0 0 0 0 0 0 0 0 0 0 0 0 0 127 0" result="hardAlpha"/>
<feOffset dx="4" dy="4"/>
<feGaussianBlur stdDeviation="2"/>
<feColorMatrix type="matrix" values="0 0 0 0 0 0 0 0 0 0 0 0 0 0 0 0 0 0 0.25 0"/>
<feBlend mode="normal" in2="BackgroundImageFix" result="effect1_dropShadow_123_14631"/>
<feBlend mode="normal" in="SourceGraphic" in2="effect1_dropShadow_123_14631" result="shape"/>
</filter>
</defs>
</svg>
