<svg width="122" height="141" viewBox="0 0 122 141" fill="none" xmlns="http://www.w3.org/2000/svg">
<circle cx="61" cy="70" r="61" fill="#76BC21"/>
<path d="M83.6764 46.98C83.6764 57.06 79.1764 60.3 71.7964 60.3H64.0564V78.3H70.7164C79.7164 78.3 83.6764 82.62 83.6764 94.32V104.22C83.6764 115.38 79.7164 118.44 73.4164 118.44C67.1164 118.44 63.1564 115.02 63.1564 106.02V94.32H44.4364V104.76C44.4364 124.92 54.5164 136.44 73.9564 136.44C93.3964 136.44 103.476 124.92 103.476 104.76V94.86C103.476 82.08 99.5164 72.72 89.6164 68.4C99.1564 64.44 103.476 55.98 103.476 42.48V39.24C103.476 19.08 93.3964 7.56 73.9564 7.56C54.5164 7.56 44.4364 19.08 44.4364 39.24V46.08H63.1564V37.98C63.1564 28.98 67.1164 25.56 73.4164 25.56C79.7164 25.56 83.6764 28.62 83.6764 39.96V46.98Z" fill="#111C4E"/>
</svg>
