<svg width="64" height="68" viewBox="0 0 64 68" fill="none" xmlns="http://www.w3.org/2000/svg">
<circle cx="32" cy="34.136" r="30" fill="#76BC21"/>
<path d="M40.2744 21.5754C40.2744 26.581 38.064 28.1899 34.439 28.1899H30.6372V37.1285H33.9085C38.3293 37.1285 40.2744 39.2737 40.2744 45.0838V50C40.2744 55.5419 38.3293 57.0615 35.2348 57.0615C32.1402 57.0615 30.1951 55.3631 30.1951 50.8939V45.0838H21V50.2682C21 60.2793 25.9512 66 35.5 66C45.0488 66 50 60.2793 50 50.2682V45.352C50 39.0056 48.0549 34.3575 43.1921 32.2123C47.8781 30.2458 50 26.0447 50 19.3408V17.7318C50 7.72067 45.0488 2 35.5 2C25.9512 2 21 7.72067 21 17.7318V21.1285H30.1951V17.1061C30.1951 12.6369 32.1402 10.9385 35.2348 10.9385C38.3293 10.9385 40.2744 12.4581 40.2744 18.0894V21.5754Z" fill="#111C4E"/>
</svg>
